<svg width="20" height="20" viewBox="0 0 20 20" fill="none" xmlns="http://www.w3.org/2000/svg">
<g clip-path="url(#clip0_177_375)">
<path d="M9.16669 14.1667H10.8334V9.16675H9.16669V14.1667ZM10 1.66675C5.39585 1.66675 1.66669 5.39591 1.66669 10.0001C1.66669 14.6042 5.39585 18.3334 10 18.3334C14.6042 18.3334 18.3334 14.6042 18.3334 10.0001C18.3334 5.39591 14.6042 1.66675 10 1.66675ZM10 16.6667C6.32502 16.6667 3.33335 13.6751 3.33335 10.0001C3.33335 6.32508 6.32502 3.33341 10 3.33341C13.675 3.33341 16.6667 6.32508 16.6667 10.0001C16.6667 13.6751 13.675 16.6667 10 16.6667ZM9.16669 7.50008H10.8334V5.83341H9.16669V7.50008Z" fill="url(#paint0_linear_177_375)"/>
</g>
<defs>
<linearGradient id="paint0_linear_177_375" x1="10" y1="1.66675" x2="10" y2="18.3334" gradientUnits="userSpaceOnUse">
<stop stop-color="#FFA05C"/>
<stop offset="1" stop-color="#F06500"/>
</linearGradient>
<clipPath id="clip0_177_375">
<rect width="20" height="20" fill="white"/>
</clipPath>
</defs>
</svg>
