<svg width="16" height="16" viewBox="0 0 16 16" fill="none" xmlns="http://www.w3.org/2000/svg">
<g clip-path="url(#clip0_143_1550)">
<path d="M4.00586 5.33337C4.02977 3.68033 4.15239 2.74315 4.78111 2.11442C5.56216 1.33337 6.81927 1.33337 9.3334 1.33337C11.8475 1.33337 13.1047 1.33337 13.8857 2.11442C14.6667 2.89547 14.6667 4.15255 14.6667 6.66671V9.33337C14.6667 11.8475 14.6667 13.1046 13.8857 13.8856C13.1047 14.6667 11.8475 14.6667 9.3334 14.6667H8" stroke="white" stroke-width="1.5" stroke-linecap="round"/>
<path d="M1.33334 9.66671C1.33334 8.73037 1.33334 8.26224 1.55805 7.92597C1.65533 7.78037 1.78033 7.65537 1.92592 7.55811C2.26222 7.33337 2.73037 7.33337 3.66668 7.33337C4.60298 7.33337 5.07114 7.33337 5.40744 7.55811C5.55302 7.65537 5.67802 7.78037 5.7753 7.92597C6.00001 8.26224 6.00001 8.73037 6.00001 9.66671V12.3334C6.00001 13.2697 6.00001 13.7378 5.7753 14.0741C5.67802 14.2197 5.55302 14.3447 5.40744 14.442C5.07114 14.6667 4.60298 14.6667 3.66668 14.6667C2.73037 14.6667 2.26222 14.6667 1.92592 14.442C1.78033 14.3447 1.65533 14.2197 1.55805 14.0741C1.33334 13.7378 1.33334 13.2697 1.33334 12.3334V9.66671Z" stroke="white" stroke-width="1.5"/>
<path d="M11.3333 12.6667H8" stroke="white" stroke-width="1.5" stroke-linecap="round"/>
</g>
<defs>
<clipPath id="clip0_143_1550">
<rect width="16" height="16" fill="white"/>
</clipPath>
</defs>
</svg>
