<svg width="16" height="16" viewBox="0 0 16 16" fill="none" xmlns="http://www.w3.org/2000/svg">
<g clip-path="url(#clip0_27_357)">
<path d="M6.58539 8.3642C6.9611 8.73841 7.46978 8.94852 8.00006 8.94852C8.53033 8.94852 9.03901 8.73841 9.41472 8.3642L15.8541 1.9242C15.7058 1.55352 15.45 1.23569 15.1196 1.01161C14.7892 0.787533 14.3993 0.667469 14.0001 0.66687H2.00006C1.60083 0.667469 1.21092 0.787533 0.880506 1.01161C0.550094 1.23569 0.294303 1.55352 0.146057 1.9242L6.58539 8.3642Z" fill="#C6C6C6"/>
<path d="M10.3573 9.30687C9.73158 9.93104 8.88383 10.2816 8 10.2816C7.11617 10.2816 6.26842 9.93104 5.64267 9.30687L0 3.66687V15.3335H16V3.66687L10.3573 9.30687Z" fill="#C6C6C6"/>
</g>
<defs>
<clipPath id="clip0_27_357">
<rect width="16" height="16" fill="white"/>
</clipPath>
</defs>
</svg>
