<svg width="16" height="16" viewBox="0 0 16 16" fill="none" xmlns="http://www.w3.org/2000/svg">
<path d="M12.6668 5.33333V4.66667C12.6668 3.42899 12.1751 2.242 11.2999 1.36684C10.4248 0.491665 9.23778 0 8.0001 0C6.76242 0 5.57544 0.491665 4.70027 1.36684C3.8251 2.242 3.33343 3.42899 3.33343 4.66667V5.33333H1.33344V14C1.33344 14.5304 1.54415 15.0391 1.91922 15.4142C2.29429 15.7893 2.803 16 3.33343 16H12.6668C13.1972 16 13.7059 15.7893 14.081 15.4142C14.4561 15.0391 14.6668 14.5304 14.6668 14V5.33333H12.6668ZM8.66677 12H7.33343V9.33333H8.66677V12ZM11.3334 5.33333H4.66677V4.66667C4.66677 3.78261 5.01796 2.93477 5.64308 2.30964C6.2682 1.68452 7.11605 1.33333 8.0001 1.33333C8.88416 1.33333 9.732 1.68452 10.3571 2.30964C10.9822 2.93477 11.3334 3.78261 11.3334 4.66667V5.33333Z" fill="#C6C6C6"/>
</svg>
