<svg width="166" height="155" viewBox="0 0 166 155"  xmlns="http://www.w3.org/2000/svg">
<path d="M8.54785 148.787C8.54785 145.822 30.7773 143.416 58.1995 143.416C85.6245 143.416 107.854 145.822 107.854 148.787C107.854 151.754 85.6245 154.157 58.1995 154.157C30.7773 154.157 8.54785 151.754 8.54785 148.787Z" fill="#d7d7d7"/>
<path d="M125.238 30.4712L124.871 31.313C124.813 31.4464 124.66 31.5075 124.527 31.4492L101.48 21.436C101.347 21.3777 101.286 21.2221 101.344 21.0915L101.711 20.2469C101.767 20.1135 101.922 20.0552 102.056 20.1108L125.102 30.1267C125.235 30.1822 125.296 30.3378 125.238 30.4712ZM99.9301 19.9691C99.6939 20.5136 99.0577 20.7637 98.5104 20.5275C97.9658 20.2914 97.713 19.6551 97.9519 19.1078C98.1881 18.5605 98.8243 18.3104 99.3717 18.5494C99.919 18.7855 100.169 19.4217 99.9301 19.9691ZM162.996 26.7065C155.608 7.96944 133.228 -1.79642 107.584 0.273438C129.322 0.106735 147.706 9.2058 154.116 25.4702C160.92 42.7264 152.366 63.2834 134.265 78.2836L140.021 65.0393C140.449 65.1698 140.913 64.9642 141.097 64.5447L144.139 57.5433C144.32 57.1238 144.153 56.6431 143.767 56.4181L149.635 42.9154C152.366 36.628 149.473 29.2876 143.183 26.5537L88.7501 2.90173C82.4599 0.167854 75.1196 3.06291 72.3857 9.35307L66.5206 22.8558C66.0927 22.7252 65.626 22.9308 65.4454 23.3503L62.4031 30.3517C62.2197 30.7713 62.3892 31.2519 62.7726 31.477L62.4642 32.1882C62.0364 32.0604 61.5724 32.2632 61.389 32.6827L58.3467 39.6841C58.1662 40.1037 58.3328 40.5843 58.719 40.8094L53.0234 53.9176L54.5599 54.7761L53.843 56.4209L57.3021 55.0595L57.5549 55.5484L74.4222 16.7268L142.853 46.4605L127.466 81.876L104.267 92.492C100.8 89.9581 96.046 89.4164 91.9896 91.4918C88.3166 93.3699 86.0579 96.9234 85.6689 100.741C85.6467 100.955 85.8717 101.108 86.0634 101.01L95.4264 96.2233C95.5098 96.1788 95.6126 96.1816 95.6959 96.2344L101.191 99.7935C101.272 99.8462 101.319 99.9379 101.314 100.035L100.98 106.573C100.975 106.67 100.922 106.756 100.833 106.8L91.4728 111.587C91.2811 111.685 91.2728 111.957 91.459 112.063C94.7846 113.985 98.9855 114.232 102.658 112.354C106.748 110.262 109.082 106.106 109.043 101.811L129.781 91.1528C162.101 74.33 171.595 48.5193 162.996 26.7065Z" />
<path d="M94.29 132.809L93.0759 135.603L91.859 138.398C91.6895 138.787 91.1644 138.849 90.9116 138.51L89.0973 136.059L87.2859 133.609C87.033 133.267 87.2442 132.781 87.6637 132.733L90.6921 132.389L93.7205 132.042C94.1428 131.994 94.4595 132.42 94.29 132.809ZM71.3326 126.157C70.5686 127.916 68.5265 128.722 66.7678 127.958C65.0092 127.193 64.2034 125.149 64.9675 123.393C65.7315 121.634 67.7764 120.828 69.5323 121.592C71.291 122.356 72.0967 124.398 71.3326 126.157ZM49.7978 114.085L47.814 118.653C47.6918 118.933 47.3667 119.061 47.0889 118.939L42.5185 116.955C42.2407 116.833 42.1129 116.508 42.2324 116.23L44.2189 111.66C44.3411 111.382 44.6634 111.254 44.944 111.374L49.5116 113.36C49.7922 113.482 49.92 113.805 49.7978 114.085ZM107.937 126.821L39.504 97.0874L43.1659 88.6663L38.7566 86.7492L31.7052 102.983C35.5699 104.97 40.357 106.909 40.357 106.909C25.1234 103.85 13.0571 95.5704 8.11439 83.0262C1.70199 66.7619 8.93121 47.5664 24.9344 32.8523C4.77759 48.8388 -4.91881 71.2489 2.46601 89.986C6.71131 100.755 15.9104 108.562 27.835 112.86C26.9571 118.333 29.8465 123.932 35.1587 126.238L89.5919 149.89C95.882 152.624 103.222 149.729 105.956 143.441L126.538 96.0705C124.352 97.3375 122.085 98.5349 119.74 99.6546L107.937 126.821Z"/>
<path d="M32.9416 48.7304C34.6281 44.8518 39.1373 43.0737 43.0186 44.7574C46.8972 46.4438 48.6781 50.9558 46.9917 54.8344C45.3052 58.7157 40.7932 60.4939 36.9146 58.8074C33.0333 57.1237 31.2552 52.6117 32.9416 48.7304ZM36.2284 63.9557L37.3314 61.883C38.9928 62.3192 40.6932 62.3248 42.2963 61.9553L43.327 64.0585L45.8859 63.0499L45.2469 60.7856C46.6527 59.9632 47.8752 58.8074 48.7837 57.3682L51.0036 58.1295L52.101 55.6068L50.0534 54.4621C50.5007 52.7867 50.5118 51.0697 50.1395 49.4528L52.2427 48.422L51.2342 45.8631L48.9698 46.5049C48.1447 45.0991 46.9889 43.8739 45.5525 42.9653L46.3137 40.7454L43.7882 39.648L42.6436 41.6956C40.9849 41.2539 39.2845 41.24 37.6814 41.6012L36.6062 39.5063L34.0446 40.5176L34.7281 42.757C33.2917 43.5877 32.0442 44.7657 31.1246 46.2354L28.8908 45.5214L27.7934 48.0441L29.866 49.1499C29.4353 50.7947 29.4242 52.4783 29.7826 54.0676L27.6906 55.1428L28.6991 57.7044L30.9384 57.0209C31.7719 58.4573 32.9499 59.7048 34.4197 60.6244L33.7029 62.8582L36.2284 63.9557Z" />
<path d="M50.7674 79.0976C49.4505 82.126 45.9276 83.5152 42.8964 82.1982C39.868 80.8841 38.4789 77.3584 39.7958 74.33C41.1099 71.2988 44.6357 69.9124 47.664 71.2266C50.6952 72.5435 52.0844 76.0665 50.7674 79.0976ZM54.0792 72.0906L52.3122 72.5907C51.6676 71.4933 50.7646 70.5375 49.6422 69.8291L50.2368 68.0926L48.2669 67.2369L47.3723 68.8344C46.0776 68.4899 44.7496 68.4788 43.4965 68.7594L42.6575 67.1258L40.6571 67.9148L41.1905 69.6652C40.0681 70.3153 39.0929 71.2349 38.376 72.3824L36.6313 71.8239L35.7755 73.7938L37.3925 74.6578C37.0563 75.9414 37.048 77.2556 37.3286 78.4975L35.6949 79.3365L36.4812 81.3369L38.2316 80.8035C38.8817 81.9259 39.8013 82.9012 40.9488 83.618L40.3903 85.3628L42.3602 86.2185L43.2242 84.6015C44.5217 84.9404 45.8498 84.946 47.1 84.6571L47.9057 86.2991L49.9034 85.5128L49.4033 83.743C50.5007 83.1012 51.4565 82.1982 52.1677 81.0758L53.9014 81.6703L54.7571 79.6977L53.1596 78.8059C53.5069 77.4973 53.5152 76.1554 53.2263 74.894L54.8683 74.0883L54.0792 72.0906Z" />
<path d="M61.9919 65.756C61.0806 67.8509 58.6468 68.8094 56.5547 67.9009C54.4598 66.9896 53.5013 64.5558 54.4098 62.4637C55.3211 60.3689 57.755 59.4103 59.847 60.3188C61.9419 61.2301 62.9004 63.664 61.9919 65.756ZM63.6895 62.8527L64.8258 62.297L64.2813 60.9162L63.0588 61.2607C62.6143 60.5022 61.9919 59.841 61.214 59.352L61.6252 58.1545L60.2638 57.5627L59.647 58.6657C58.7496 58.4268 57.8327 58.4212 56.9687 58.6157L56.388 57.4849L55.0072 58.0295L55.3739 59.2381C54.5988 59.6882 53.9264 60.3244 53.4291 61.1162L52.226 60.73L51.6343 62.0914L52.7512 62.6888C52.5178 63.5778 52.5122 64.4836 52.7067 65.3421L51.5759 65.9227L52.1205 67.3036L53.329 66.9368C53.7791 67.712 54.4154 68.3844 55.2072 68.8817L54.821 70.0847L56.1824 70.6765L56.7797 69.5596C57.6771 69.793 58.594 69.7985 59.4581 69.5985L60.0137 70.7348L61.3946 70.1903L61.0501 68.9678C61.8085 68.5233 62.467 67.8982 62.9588 67.123L64.1562 67.5342L64.748 66.1728L63.645 65.556C63.8839 64.6503 63.8895 63.7251 63.6895 62.8527Z" />
</svg>
