<svg width="20" height="20" viewBox="0 0 20 20" fill="none" xmlns="http://www.w3.org/2000/svg">
<g clip-path="url(#clip0_183_381)">
<path d="M9.8333 10.4166V9.58325L10.75 8.91659C10.8333 8.83325 10.8333 8.74992 10.8333 8.66659L9.99997 7.24992C9.91664 7.16659 9.8333 7.08325 9.74997 7.16659L8.66664 7.49992C8.41664 7.33325 8.16664 7.16659 7.91664 7.08325L7.74997 5.99992C7.74997 5.91659 7.66664 5.83325 7.49997 5.83325H5.83331C5.74997 5.83325 5.66664 5.91659 5.58331 5.99992L5.41664 7.08325C5.16664 7.16659 4.91664 7.33325 4.66664 7.49992L3.58331 7.08325C3.49997 7.08325 3.41664 7.08325 3.33331 7.16659L2.49997 8.58325C2.41664 8.66659 2.49997 8.74992 2.58331 8.83325L3.49997 9.49992V10.3333L2.58331 10.9999C2.49997 11.1666 2.49997 11.2499 2.49997 11.3333L3.33331 12.7499C3.41664 12.8333 3.49997 12.9166 3.58331 12.8333L4.74997 12.4999C4.99997 12.6666 5.24997 12.8333 5.49997 12.9166L5.66664 13.9999C5.58331 14.0833 5.74997 14.1666 5.83331 14.1666H7.49997C7.58331 14.1666 7.66664 14.0833 7.74997 13.9999L7.91664 12.9166C8.16664 12.8333 8.41664 12.6666 8.66664 12.4999L9.74997 12.9166C9.8333 12.9166 9.91664 12.9166 9.99997 12.8333L10.8333 11.4166C10.9166 11.3333 10.8333 11.2499 10.75 11.1666L9.8333 10.4166ZM6.66664 11.6666C5.74997 11.6666 4.99997 10.9166 4.99997 9.99992C4.99997 9.08325 5.74997 8.33325 6.66664 8.33325C7.58331 8.33325 8.33331 9.08325 8.33331 9.99992C8.33331 10.9166 7.58331 11.6666 6.66664 11.6666ZM15.8333 0.833252H7.49997C6.58331 0.833252 5.83331 1.58325 5.83331 2.49992V4.99992H7.49997V3.33325H15.8333V16.6666H7.49997V14.9999H5.83331V17.4999C5.83331 18.4166 6.58331 19.1666 7.49997 19.1666H15.8333C16.75 19.1666 17.5 18.4166 17.5 17.4999V2.49992C17.5 1.58325 16.75 0.833252 15.8333 0.833252Z" fill="white"/>
</g>
<defs>
<clipPath id="clip0_183_381">
<rect width="20" height="20" fill="white"/>
</clipPath>
</defs>
</svg>
