<svg width="40" height="40" viewBox="0 0 40 40"  xmlns="http://www.w3.org/2000/svg">
<g clip-path="url(#clip0_79_377)">
<path d="M25.8333 1.66666H12.5C10.2 1.66666 8.33333 3.53332 8.33333 5.83332V34.1667C8.33333 36.4667 10.2 38.3333 12.5 38.3333H25.8333C28.1333 38.3333 30 36.4667 30 34.1667V5.83332C30 3.53332 28.1333 1.66666 25.8333 1.66666ZM19.1667 36.6667C17.7833 36.6667 16.6667 35.55 16.6667 34.1667C16.6667 32.7833 17.7833 31.6667 19.1667 31.6667C20.55 31.6667 21.6667 32.7833 21.6667 34.1667C21.6667 35.55 20.55 36.6667 19.1667 36.6667ZM26.6667 30H11.6667V6.66666H26.6667V30Z" />
</g>
<defs>
<clipPath id="clip0_79_377">
<rect width="40" height="40" />
</clipPath>
</defs>
</svg>
