<svg width="22" height="22" viewBox="0 0 22 22" fill="none" xmlns="http://www.w3.org/2000/svg">
<path fill-rule="evenodd" clip-rule="evenodd" d="M13.7499 17.4166H8.24992C6.22487 17.4166 4.58325 15.775 4.58325 13.75V8.24998C4.58325 6.22494 6.22487 4.58331 8.24992 4.58331H13.7499C15.775 4.58331 17.4166 6.22494 17.4166 8.24998V13.75C17.4166 15.775 15.775 17.4166 13.7499 17.4166Z"  stroke-width="1.5" stroke-linecap="round" stroke-linejoin="round"/>
<path d="M17.4166 9C17.8308 9 18.1666 8.66421 18.1666 8.25C18.1666 7.83579 17.8308 7.5 17.4166 7.5V8.25V9ZM4.58325 7.5C4.16904 7.5 3.83325 7.83579 3.83325 8.25C3.83325 8.66421 4.16904 9 4.58325 9V8.25V7.5ZM10.0833 13C9.66904 13 9.33325 13.3358 9.33325 13.75C9.33325 14.1642 9.66904 14.5 10.0833 14.5V13.75V13ZM11.9166 14.5C12.3308 14.5 12.6666 14.1642 12.6666 13.75C12.6666 13.3358 12.3308 13 11.9166 13V13.75V14.5ZM17.4166 8.25V7.5H4.58325V8.25V9H17.4166V8.25ZM10.0833 13.75V14.5H11.9166V13.75V13H10.0833V13.75Z" />
</svg>
