<svg width="16" height="16" viewBox="0 0 16 16" fill="none" xmlns="http://www.w3.org/2000/svg">
<g clip-path="url(#clip0_27_364)">
<path d="M15.8805 7.454C15.2952 6.174 12.9999 2 7.99985 2C2.99985 2 0.70452 6.174 0.119186 7.454C0.040612 7.62553 -6.10352e-05 7.81199 -6.10352e-05 8.00067C-6.10352e-05 8.18934 0.040612 8.3758 0.119186 8.54733C0.70452 9.826 2.99985 14 7.99985 14C12.9999 14 15.2952 9.826 15.8805 8.546C15.9589 8.37466 15.9995 8.18843 15.9995 8C15.9995 7.81157 15.9589 7.62534 15.8805 7.454ZM7.99985 12C7.20873 12 6.43537 11.7654 5.77757 11.3259C5.11978 10.8864 4.60709 10.2616 4.30434 9.53073C4.00159 8.79983 3.92237 7.99556 4.07671 7.21964C4.23105 6.44372 4.61202 5.73098 5.17143 5.17157C5.73084 4.61216 6.44357 4.2312 7.21949 4.07686C7.99542 3.92252 8.79968 4.00173 9.53059 4.30448C10.2615 4.60723 10.8862 5.11992 11.3257 5.77772C11.7653 6.43552 11.9999 7.20887 11.9999 8C11.9988 9.06054 11.577 10.0773 10.8271 10.8273C10.0772 11.5772 9.0604 11.9989 7.99985 12Z" fill="#C6C6C6"/>
<path d="M8.0001 10.6665C9.47285 10.6665 10.6668 9.47255 10.6668 7.99979C10.6668 6.52703 9.47285 5.33313 8.0001 5.33313C6.52734 5.33313 5.33344 6.52703 5.33344 7.99979C5.33344 9.47255 6.52734 10.6665 8.0001 10.6665Z" fill="#C6C6C6"/>
</g>
<defs>
<clipPath id="clip0_27_364">
<rect width="16" height="16" fill="white"/>
</clipPath>
</defs>
</svg>
